<?xml version="1.0" encoding="UTF-8" standalone="no"?>
<!-- Created with Inkscape (http://www.inkscape.org/) -->

<svg
   width="16"
   height="16"
   viewBox="0 0 4.2333333 4.2333332"
   version="1.1"
   id="svg5"
   xmlns="http://www.w3.org/2000/svg"
   xmlns:svg="http://www.w3.org/2000/svg">
  <defs
     id="defs2" />
  <g
     id="layer1">
    <path
       style="fill:#f6f6f6;fill-opacity:1;stroke:#000000;stroke-width:0.100013;stroke-linecap:round;stroke-linejoin:round;stroke-dasharray:0.100013, 0.200025;stroke-dashoffset:0;stop-color:#000000"
       d="M 0.51206892,1.4295259 1.1579602,2.0393304 1.9842671,0.78724136 2.7362114,2.0820566 3.5204741,0.82144395 4.2139009,2.272306 4.1925647,4.224569 0.05334052,4.1925647 0.0106681,2.475 Z"
       id="path792" />
    <path
       style="fill:none;stroke:#000000;stroke-width:0.1;stroke-linecap:round;stroke-linejoin:round;stroke-dasharray:none;stop-color:#000000"
       d="m 0,2.4856681 c 0,0 0.06811944,-0.548146 0.49073274,-0.6934267 0.13722019,-0.047172 0.66142246,-0.202694 0.66142246,-0.202694 0,0 0.5122456,-0.3020406 0.8122922,-0.3148121 C 2.289002,1.2609205 2.4235384,1.6709737 2.7523707,1.6322198 3.0701687,1.5947664 3.1987971,1.2338184 3.4884699,1.29879 3.888607,1.3885379 4.2139007,2.1976293 4.2139007,2.1976293 V 4.2139007 H 0.02133621 Z"
       id="path236" />
  </g>
</svg>
