<?xml version="1.0" encoding="UTF-8" standalone="no"?>
<!-- Created with Inkscape (http://www.inkscape.org/) -->

<svg
   width="16"
   height="16"
   viewBox="0 0 4.2333333 4.2333332"
   version="1.1"
   id="svg5"
   xmlns="http://www.w3.org/2000/svg"
   xmlns:svg="http://www.w3.org/2000/svg">
  <defs
     id="defs2" />
  <g
     id="layer1">
    <path
       style="font-variation-settings:normal;opacity:1;vector-effect:none;fill:none;fill-opacity:1;stroke:#000000;stroke-width:0.1;stroke-linecap:round;stroke-linejoin:round;stroke-miterlimit:4;stroke-dasharray:none;stroke-dashoffset:0;stroke-opacity:1;-inkscape-stroke:none;stop-color:#000000;stop-opacity:1"
       d="M 0.37338357,2.0482759 1.0885613,2.8027184 2.0187158,0.32028471 2.7163831,2.5876772 3.6501118,0.87293912 4.2139009,2.272306 4.1925647,4.224569 0.07594547,4.1925647 0.03327305,2.475 Z"
       id="path792" />
    <path
       style="font-variation-settings:normal;opacity:1;vector-effect:none;fill:none;fill-opacity:1;stroke:#000000;stroke-width:0.100013;stroke-linecap:round;stroke-linejoin:round;stroke-miterlimit:4;stroke-dasharray:0.100013, 0.200025;stroke-dashoffset:0;stroke-opacity:1;-inkscape-stroke:none;stop-color:#000000;stop-opacity:1"
       d="M 0.06562482,2.4856681 0.37227201,2.2318086 1.0405121,2.3466669 1.9843175,1.9477596 2.7321212,2.3368742 3.5970583,1.9407818 4.2139007,2.1976293 V 4.2139007 H 0.08696103 Z"
       id="path236" />
    <path
       style="fill:#a5d0ff;fill-opacity:1;stroke:#000000;stroke-width:0.0759528;stroke-linecap:round;stroke-linejoin:round;stroke-dasharray:none;stroke-dashoffset:0;stop-color:#000000"
       d="M 1.6808688,2.7511849 2.1520022,2.7475184 2.0988364,3.2157695 2.570123,3.1959394 1.8741222,3.7874781 1.2945619,3.2324803 1.7414066,3.2205029 Z"
       id="path1107" />
    <path
       style="fill:#a5d0ff;fill-opacity:1;stroke:#000000;stroke-width:0.0788378;stroke-linecap:round;stroke-linejoin:round;stroke-dasharray:none;stroke-dashoffset:0;stop-color:#000000"
       d="m 1.187729,1.252874 -0.5090169,-0.0021 0.0609,-0.46628785 -0.5093017,0.014017 0.7563,-0.58137637 0.622025,0.56052087 -0.4828381,0.00648 z"
       id="path1107-5" />
  </g>
</svg>
